<svg xmlns="http://www.w3.org/2000/svg" version="1.1" xmlns:xlink="http://www.w3.org/1999/xlink" xmlns:svgjs="http://svgjs.dev/svgjs" width="1500" height="1500" viewBox="0 0 1500 1500"><rect width="1500" height="1500" fill="#b0cbe8"></rect><g transform="matrix(0.6666666666666666,0,0,0.6666666666666666,250,281.3333333333334)"><svg viewBox="0 0 384 360" data-background-color="#b0cbe8" preserveAspectRatio="xMidYMid meet" height="1406" width="1500" xmlns="http://www.w3.org/2000/svg" xmlns:xlink="http://www.w3.org/1999/xlink"><g id="tight-bounds" transform="matrix(1,0,0,1,0,0)"><svg viewBox="0 0 384 360" height="360" width="384"><g><svg></svg></g><g><svg viewBox="0 0 384 360" height="360" width="384"><g><path d="M362.354 145.441v-42.24c0-21.12-19.163-38.402-42.587-38.402h-93.208c-15.198 0-28.337-8.831-34.559-21.646-6.222 12.81-19.36 21.646-34.559 21.646h-93.208c-23.424 0-42.587 17.282-42.587 38.402v42.24c0 15.198-8.831 28.337-21.646 34.559 12.81 6.222 21.646 19.36 21.646 34.559v42.24c0 21.12 19.163 38.402 42.587 38.402h93.208c15.198 0 28.337 8.831 34.559 21.646 6.222-12.81 19.36-21.646 34.559-21.646h93.208c23.424 0 42.587-17.282 42.587-38.402v-42.24c0-15.198 8.831-28.337 21.646-34.559-12.81-6.222-21.646-19.36-21.646-34.559z" fill="#eeff01" fill-rule="nonzero" stroke="none" stroke-width="1" stroke-linecap="butt" stroke-linejoin="miter" stroke-miterlimit="10" stroke-dasharray="" stroke-dashoffset="0" font-family="none" font-weight="none" font-size="none" text-anchor="none" style="mix-blend-mode: normal" data-fill-palette-color="tertiary"></path></g><g transform="matrix(1,0,0,1,144.1313269493844,99.00000000000001)"><svg viewBox="0 0 95.73734610123118 161.99999999999997" height="161.99999999999997" width="95.73734610123118"><g><svg viewBox="0 0 95.73734610123118 161.99999999999997" height="161.99999999999997" width="95.73734610123118"><g><svg viewBox="0 0 95.73734610123118 161.99999999999997" height="161.99999999999997" width="95.73734610123118"><g id="textblocktransform"><svg viewBox="0 0 95.73734610123118 161.99999999999997" height="161.99999999999997" width="95.73734610123118" id="textblock"><g><svg viewBox="0 0 95.73734610123118 161.99999999999997" height="161.99999999999997" width="95.73734610123118"><g transform="matrix(1,0,0,1,0,0)"><svg width="95.73734610123118" viewBox="3.86 -35.69 21.09 35.69" height="161.99999999999997" data-palette-color="#b0cbe8"><path d="M13.35-13.4L13.35 0 3.86 0 3.86-35.69 24.95-35.69 24.95-27.95 13.35-27.95 13.35-21.14 24.05-21.14 24.05-13.4 13.35-13.4Z" opacity="1" transform="matrix(1,0,0,1,0,0)" fill="#b0cbe8" class="wordmark-text-0" data-fill-palette-color="quaternary" id="text-0"></path></svg></g></svg></g></svg></g></svg></g></svg></g></svg></g></svg></g><defs></defs></svg><rect width="384" height="360" fill="none" stroke="none" visibility="hidden"></rect></g></svg></g></svg>